<svg xmlns="http://www.w3.org/2000/svg" viewBox="0 0 192 192" width="192" height="192">
  <rect width="192" height="192" rx="32" fill="#1a1a2e"/>
  <g transform="translate(96,96)">
    <rect x="-48" y="-48" width="96" height="96" rx="12" fill="none" stroke="#e0e0e0" stroke-width="4"/>
    <rect x="-36" y="-36" width="18" height="10" rx="2" fill="#4ecdc4"/>
    <rect x="-12" y="-36" width="18" height="10" rx="2" fill="#4ecdc4"/>
    <rect x="14" y="-36" width="18" height="10" rx="2" fill="#4ecdc4"/>
    <rect x="-36" y="-18" width="18" height="10" rx="2" fill="#e0e0e0"/>
    <rect x="-12" y="-18" width="18" height="10" rx="2" fill="#e0e0e0"/>
    <rect x="14" y="-18" width="18" height="10" rx="2" fill="#e0e0e0"/>
    <rect x="-36" y="0" width="18" height="10" rx="2" fill="#e0e0e0"/>
    <rect x="-12" y="0" width="18" height="10" rx="2" fill="#e0e0e0"/>
    <rect x="14" y="0" width="44" height="28" rx="4" fill="#4ecdc4"/>
    <rect x="-36" y="18" width="18" height="10" rx="2" fill="#e0e0e0"/>
    <rect x="-12" y="18" width="18" height="10" rx="2" fill="#e0e0e0"/>
  </g>
</svg>
